<svg xmlns="http://www.w3.org/2000/svg" viewBox="0 0 520 330" width="520" height="330" role="img" aria-label="Amir-ibn-iliyas — gh langs">
<defs>
  <style>
    .m{font-family:'SF Mono','DejaVu Sans Mono',Consolas,'Courier New',monospace;font-size:13px}
    .lb{fill:#9DB0CB} .vl{fill:#FFFFFF;font-weight:bold} .dm{fill:#4E5D78}
    .ps{fill:#E62429;font-weight:bold} .cm{fill:#E8EEF7}
    .cur{fill:#E62429;animation:bl 1.05s steps(1) infinite}
    @keyframes bl{0%,49%{opacity:1}50%,100%{opacity:0}}
    .grow{animation:gw 1.1s cubic-bezier(.2,.8,.3,1) forwards;transform-origin:left center}
    @keyframes gw{from{transform:scaleX(0)}to{transform:scaleX(1)}}
    @media (prefers-reduced-motion:reduce){.cur{animation:none}.grow{animation:none}}
  </style>
  <clipPath id="round"><rect width="520" height="330" rx="12"/></clipPath>
</defs>
<g clip-path="url(#round)">
  <rect width="520" height="330" fill="#090E1A"/>
  <rect width="520" height="38" fill="#0D1424"/>
  <line x1="0" y1="38" x2="520" y2="38" stroke="#1C2740"/>
  <circle cx="20" cy="19" r="5" fill="#E62429"/><circle cx="38" cy="19" r="5" fill="#F0A202"/><circle cx="56" cy="19" r="5" fill="#1B72BE"/>
  <text class="m" x="260.0" y="24" text-anchor="middle" fill="#4E5D78" font-size="11">Amir-ibn-iliyas — gh langs</text>
  <text class="m" x="22" y="70"><tspan class="ps">❯</tspan><tspan class="cm" dx="10">gh langs --top 6</tspan></text>
  <clipPath id="barclip"><rect x="26" y="92" width="468" height="16" rx="8"/></clipPath>
  <g clip-path="url(#barclip)">
    <rect class="grow" x="26.0" y="92" width="355.1" height="16" fill="#f1e05a" style="animation-delay:0.00s"/>
    <rect class="grow" x="381.1" y="92" width="56.0" height="16" fill="#663399" style="animation-delay:0.09s"/>
    <rect class="grow" x="437.1" y="92" width="34.9" height="16" fill="#e34c26" style="animation-delay:0.18s"/>
    <rect class="grow" x="472.0" y="92" width="16.8" height="16" fill="#3178c6" style="animation-delay:0.27s"/>
    <rect class="grow" x="488.8" y="92" width="5.2" height="16" fill="#3572A5" style="animation-delay:0.36s"/>
  </g>
  <circle cx="32" cy="142" r="5" fill="#f1e05a"/>
  <text class="m" x="48" y="146" fill="#9DB0CB">JavaScript</text>
  <text class="m" x="494" y="146" text-anchor="end" fill="#FFFFFF" font-weight="bold">75.9%</text>
  <circle cx="32" cy="168" r="5" fill="#663399"/>
  <text class="m" x="48" y="172" fill="#9DB0CB">CSS</text>
  <text class="m" x="494" y="172" text-anchor="end" fill="#FFFFFF" font-weight="bold">12.0%</text>
  <circle cx="32" cy="194" r="5" fill="#e34c26"/>
  <text class="m" x="48" y="198" fill="#9DB0CB">HTML</text>
  <text class="m" x="494" y="198" text-anchor="end" fill="#FFFFFF" font-weight="bold">7.5%</text>
  <circle cx="32" cy="220" r="5" fill="#3178c6"/>
  <text class="m" x="48" y="224" fill="#9DB0CB">TypeScript</text>
  <text class="m" x="494" y="224" text-anchor="end" fill="#FFFFFF" font-weight="bold">3.6%</text>
  <circle cx="32" cy="246" r="5" fill="#3572A5"/>
  <text class="m" x="48" y="250" fill="#9DB0CB">Python</text>
  <text class="m" x="494" y="250" text-anchor="end" fill="#FFFFFF" font-weight="bold">1.1%</text>
  <text class="m" x="22" y="284"><tspan class="ps">❯</tspan></text>
  <rect class="cur" x="40" y="271" width="9" height="15"/>
  <rect y="298" width="520" height="32" fill="#0A1120"/>
  <line x1="0" y1="298" x2="520" y2="298" stroke="#1C2740"/>
  <rect x="0" y="298" width="4" height="32" fill="#E62429"/>
  <text class="m" x="22" y="318" fill="#4E5D78" font-size="10.5">Amir-ibn-iliyas</text>
  <text class="m" x="500" y="318" text-anchor="end" fill="#4E5D78" font-size="10.5">updated 2026-08-28 15:28 UTC</text>
</g>
</svg>
